<svg viewBox="0 0 18 18" xmlns="http://www.w3.org/2000/svg" fill-rule="evenodd" clip-rule="evenodd" stroke-linejoin="round" stroke-miterlimit="2"><path d="M9 .108C4.097.108.11 4.098.11 9c0 4.903 3.988 8.891 8.891 8.891 4.903 0 8.892-3.988 8.892-8.891C17.892 4.098 13.903.108 9 .108zm0 .954A7.939 7.939 0 119 16.94 7.939 7.939 0 019 1.062z" fill="#63bc47" fill-rule="nonzero"/><path d="M6.425 4.484c1.078 0 1.956.877 1.956 1.956a1.96 1.96 0 01-1.956 1.956A1.96 1.96 0 014.468 6.44c0-1.079.878-1.956 1.957-1.956zm0 .953a1.004 1.004 0 100 2.008 1.004 1.004 0 000-2.008zm10.293 1.461H7.92a.458.458 0 110-.916h8.798a.458.458 0 110 .916zM9.842 12.193H1.564a.406.406 0 010-.81h8.278a.404.404 0 110 .81z" fill="#63bc47" fill-rule="nonzero"/><path d="M11.327 9.793a1.958 1.958 0 00-1.956 1.956c0 1.078.877 1.956 1.956 1.956a1.96 1.96 0 001.956-1.956 1.958 1.958 0 00-1.956-1.956zm0 .953a1.004 1.004 0 110 2.007 1.004 1.004 0 010-2.007z" fill="#63bc47" fill-rule="nonzero"/></svg>